<mxfile host="app.diagrams.net" modified="2024-01-15T10:00:00.000Z" agent="5.0" etag="mno345" version="22.1.16" type="device">
  <diagram name="Système de Tests" id="test-system">
    <mxGraphModel dx="1422" dy="794" grid="1" gridSize="10" guides="1" tooltips="1" connect="1" arrows="1" fold="1" page="1" pageScale="1" pageWidth="1169" pageHeight="827" math="0" shadow="0">
      <root>
        <mxCell id="0" />
        <mxCell id="1" parent="0" />
        
        <!-- Titre -->
        <mxCell id="title" value="R-Type 2 - Système de Tests et Qualité" style="text;html=1;strokeColor=none;fillColor=none;align=center;verticalAlign=middle;whiteSpace=wrap;rounded=0;fontSize=20;fontStyle=1;" vertex="1" parent="1">
          <mxGeometry x="300" y="20" width="569" height="30" as="geometry" />
        </mxCell>
        
        <!-- Test Runner -->
        <mxCell id="test-runner-title" value="TEST RUNNER PRINCIPAL" style="text;html=1;strokeColor=none;fillColor=none;align=center;verticalAlign=middle;whiteSpace=wrap;rounded=0;fontSize=16;fontStyle=1;" vertex="1" parent="1">
          <mxGeometry x="80" y="70" width="300" height="30" as="geometry" />
        </mxCell>
        
        <mxCell id="test-runner" value="test-runner.html" style="rounded=1;whiteSpace=wrap;html=1;fillColor=#d5e8d4;strokeColor=#82b366;fontSize=14;fontStyle=1;" vertex="1" parent="1">
          <mxGeometry x="80" y="110" width="200" height="40" as="geometry" />
        </mxCell>
        
        <mxCell id="test-runner-detail" value="• Interface web de tests&#xa;• 132 tests automatisés&#xa;• Résultats en temps réel&#xa;• Couverture complète&#xa;• Rapports détaillés" style="text;html=1;strokeColor=#82b366;fillColor=#d5e8d4;align=left;verticalAlign=top;whiteSpace=wrap;rounded=1;fontSize=10;" vertex="1" parent="1">
          <mxGeometry x="80" y="160" width="200" height="70" as="geometry" />
        </mxCell>
        
        <!-- Test Categories -->
        <mxCell id="categories-title" value="CATÉGORIES DE TESTS" style="text;html=1;strokeColor=none;fillColor=none;align=center;verticalAlign=middle;whiteSpace=wrap;rounded=0;fontSize=16;fontStyle=1;" vertex="1" parent="1">
          <mxGeometry x="80" y="260" width="300" height="30" as="geometry" />
        </mxCell>
        
        <!-- Unit Tests -->
        <mxCell id="unit-tests" value="Tests Unitaires" style="rounded=1;whiteSpace=wrap;html=1;fillColor=#f8cecc;strokeColor=#b85450;fontSize=12;fontStyle=1;" vertex="1" parent="1">
          <mxGeometry x="80" y="300" width="120" height="30" as="geometry" />
        </mxCell>
        
        <mxCell id="unit-tests-detail" value="• Configuration (10 tests)&#xa;• ScoreManager (15 tests)&#xa;• LevelManager (18 tests)&#xa;• Logique générale (15 tests)&#xa;• Total: 58 tests" style="text;html=1;strokeColor=#b85450;fillColor=#f8cecc;align=left;verticalAlign=top;whiteSpace=wrap;rounded=1;fontSize=9;" vertex="1" parent="1">
          <mxGeometry x="80" y="335" width="120" height="70" as="geometry" />
        </mxCell>
        
        <!-- Integration Tests -->
        <mxCell id="integration-tests" value="Tests d'Intégration" style="rounded=1;whiteSpace=wrap;html=1;fillColor=#fff2cc;strokeColor=#d6b656;fontSize=12;fontStyle=1;" vertex="1" parent="1">
          <mxGeometry x="220" y="300" width="120" height="30" as="geometry" />
        </mxCell>
        
        <mxCell id="integration-tests-detail" value="• Progression niveau (10 tests)&#xa;• Système vies (10 tests)&#xa;• Persistance (10 tests)&#xa;• Statistiques (12 tests)&#xa;• Total: 42 tests" style="text;html=1;strokeColor=#d6b656;fillColor=#fff2cc;align=left;verticalAlign=top;whiteSpace=wrap;rounded=1;fontSize=9;" vertex="1" parent="1">
          <mxGeometry x="220" y="335" width="120" height="70" as="geometry" />
        </mxCell>
        
        <!-- Gameplay Tests -->
        <mxCell id="gameplay-tests" value="Tests Gameplay" style="rounded=1;whiteSpace=wrap;html=1;fillColor=#e1d5e7;strokeColor=#9673a6;fontSize=12;fontStyle=1;" vertex="1" parent="1">
          <mxGeometry x="360" y="300" width="120" height="30" as="geometry" />
        </mxCell>
        
        <mxCell id="gameplay-tests-detail" value="• Projectiles (8 tests)&#xa;• Boss movement (12 tests)&#xa;• Groupes ennemis (12 tests)&#xa;• Total: 32 tests" style="text;html=1;strokeColor=#9673a6;fillColor=#e1d5e7;align=left;verticalAlign=top;whiteSpace=wrap;rounded=1;fontSize=9;" vertex="1" parent="1">
          <mxGeometry x="360" y="335" width="120" height="60" as="geometry" />
        </mxCell>
        
        <!-- Visual Tests -->
        <mxCell id="visual-tests-title" value="TESTS VISUELS" style="text;html=1;strokeColor=none;fillColor=none;align=center;verticalAlign=middle;whiteSpace=wrap;rounded=0;fontSize=16;fontStyle=1;" vertex="1" parent="1">
          <mxGeometry x="600" y="70" width="200" height="30" as="geometry" />
        </mxCell>
        
        <mxCell id="delorean-test" value="test-delorean.html" style="rounded=1;whiteSpace=wrap;html=1;fillColor=#d5e8d4;strokeColor=#82b366;fontSize=12;fontStyle=1;" vertex="1" parent="1">
          <mxGeometry x="600" y="110" width="120" height="30" as="geometry" />
        </mxCell>
        
        <mxCell id="delorean-test-detail" value="• Sprites DeLorean&#xa;• Comparaison versions&#xa;• Vérification chargement" style="text;html=1;strokeColor=#82b366;fillColor=#d5e8d4;align=left;verticalAlign=top;whiteSpace=wrap;rounded=1;fontSize=9;" vertex="1" parent="1">
          <mxGeometry x="600" y="145" width="120" height="45" as="geometry" />
        </mxCell>
        
        <mxCell id="colors-test" value="test-enemy-colors.html" style="rounded=1;whiteSpace=wrap;html=1;fillColor=#f8cecc;strokeColor=#b85450;fontSize=12;fontStyle=1;" vertex="1" parent="1">
          <mxGeometry x="740" y="110" width="120" height="30" as="geometry" />
        </mxCell>
        
        <mxCell id="colors-test-detail" value="• Couleurs ennemis&#xa;• Palettes RGB&#xa;• Rendu correct" style="text;html=1;strokeColor=#b85450;fillColor=#f8cecc;align=left;verticalAlign=top;whiteSpace=wrap;rounded=1;fontSize=9;" vertex="1" parent="1">
          <mxGeometry x="740" y="145" width="120" height="45" as="geometry" />
        </mxCell>
        
        <mxCell id="terrain-test" value="test-alien-terrain.html" style="rounded=1;whiteSpace=wrap;html=1;fillColor=#dae8fc;strokeColor=#6c8ebf;fontSize=12;fontStyle=1;" vertex="1" parent="1">
          <mxGeometry x="880" y="110" width="120" height="30" as="geometry" />
        </mxCell>
        
        <mxCell id="terrain-test-detail" value="• Terrain alien&#xa;• Collisions mortelles&#xa;• Génération procédurale" style="text;html=1;strokeColor=#6c8ebf;fillColor=#dae8fc;align=left;verticalAlign=top;whiteSpace=wrap;rounded=1;fontSize=9;" vertex="1" parent="1">
          <mxGeometry x="880" y="145" width="120" height="45" as="geometry" />
        </mxCell>
        
        <!-- Test Structure -->
        <mxCell id="structure-title" value="STRUCTURE DES TESTS" style="text;html=1;strokeColor=none;fillColor=none;align=center;verticalAlign=middle;whiteSpace=wrap;rounded=0;fontSize=16;fontStyle=1;" vertex="1" parent="1">
          <mxGeometry x="600" y="220" width="200" height="30" as="geometry" />
        </mxCell>
        
        <mxCell id="test-files" value="tests/" style="rounded=1;whiteSpace=wrap;html=1;fillColor=#e1d5e7;strokeColor=#9673a6;fontSize=14;fontStyle=1;" vertex="1" parent="1">
          <mxGeometry x="600" y="260" width="80" height="30" as="geometry" />
        </mxCell>
        
        <mxCell id="config-test" value="config.test.js" style="rounded=1;whiteSpace=wrap;html=1;fillColor=#f8cecc;strokeColor=#b85450;fontSize=10;" vertex="1" parent="1">
          <mxGeometry x="600" y="300" width="80" height="25" as="geometry" />
        </mxCell>
        
        <mxCell id="score-test" value="score.test.js" style="rounded=1;whiteSpace=wrap;html=1;fillColor=#f8cecc;strokeColor=#b85450;fontSize=10;" vertex="1" parent="1">
          <mxGeometry x="690" y="300" width="80" height="25" as="geometry" />
        </mxCell>
        
        <mxCell id="level-test" value="level.test.js" style="rounded=1;whiteSpace=wrap;html=1;fillColor=#f8cecc;strokeColor=#b85450;fontSize=10;" vertex="1" parent="1">
          <mxGeometry x="780" y="300" width="80" height="25" as="geometry" />
        </mxCell>
        
        <mxCell id="gameplay-test-file" value="gameplay.test.js" style="rounded=1;whiteSpace=wrap;html=1;fillColor=#f8cecc;strokeColor=#b85450;fontSize=10;" vertex="1" parent="1">
          <mxGeometry x="870" y="300" width="80" height="25" as="geometry" />
        </mxCell>
        
        <!-- Test Results -->
        <mxCell id="results-title" value="RÉSULTATS DES TESTS" style="text;html=1;strokeColor=none;fillColor=none;align=center;verticalAlign=middle;whiteSpace=wrap;rounded=0;fontSize=16;fontStyle=1;" vertex="1" parent="1">
          <mxGeometry x="80" y="440" width="200" height="30" as="geometry" />
        </mxCell>
        
        <mxCell id="test-summary" value="Résumé Global" style="rounded=1;whiteSpace=wrap;html=1;fillColor=#d5e8d4;strokeColor=#82b366;fontSize=12;fontStyle=1;" vertex="1" parent="1">
          <mxGeometry x="80" y="480" width="120" height="30" as="geometry" />
        </mxCell>
        
        <mxCell id="test-summary-detail" value="✅ 132 tests au total&#xa;✅ 100% de réussite&#xa;✅ Couverture complète&#xa;✅ 0 régression&#xa;✅ Performance validée" style="text;html=1;strokeColor=#82b366;fillColor=#d5e8d4;align=left;verticalAlign=top;whiteSpace=wrap;rounded=1;fontSize=9;" vertex="1" parent="1">
          <mxGeometry x="80" y="515" width="120" height="70" as="geometry" />
        </mxCell>
        
        <!-- Coverage -->
        <mxCell id="coverage" value="Couverture Code" style="rounded=1;whiteSpace=wrap;html=1;fillColor=#fff2cc;strokeColor=#d6b656;fontSize=12;fontStyle=1;" vertex="1" parent="1">
          <mxGeometry x="220" y="480" width="120" height="30" as="geometry" />
        </mxCell>
        
        <mxCell id="coverage-detail" value="• Managers: 100%&#xa;• Entities: 85%&#xa;• Scenes: 90%&#xa;• Config: 100%&#xa;• Global: 92%" style="text;html=1;strokeColor=#d6b656;fillColor=#fff2cc;align=left;verticalAlign=top;whiteSpace=wrap;rounded=1;fontSize=9;" vertex="1" parent="1">
          <mxGeometry x="220" y="515" width="120" height="70" as="geometry" />
        </mxCell>
        
        <!-- Performance Tests -->
        <mxCell id="performance" value="Tests Performance" style="rounded=1;whiteSpace=wrap;html=1;fillColor=#e1d5e7;strokeColor=#9673a6;fontSize=12;fontStyle=1;" vertex="1" parent="1">
          <mxGeometry x="360" y="480" width="120" height="30" as="geometry" />
        </mxCell>
        
        <mxCell id="performance-detail" value="• Temps d'exécution&#xa;• Mémoire utilisée&#xa;• FPS en jeu&#xa;• Chargement assets&#xa;• Réactivité UI" style="text;html=1;strokeColor=#9673a6;fillColor=#e1d5e7;align=left;verticalAlign=top;whiteSpace=wrap;rounded=1;fontSize=9;" vertex="1" parent="1">
          <mxGeometry x="360" y="515" width="120" height="70" as="geometry" />
        </mxCell>
        
        <!-- Quality Metrics -->
        <mxCell id="quality-title" value="MÉTRIQUES QUALITÉ" style="text;html=1;strokeColor=none;fillColor=none;align=center;verticalAlign=middle;whiteSpace=wrap;rounded=0;fontSize=16;fontStyle=1;" vertex="1" parent="1">
          <mxGeometry x="600" y="440" width="200" height="30" as="geometry" />
        </mxCell>
        
        <mxCell id="code-quality" value="Qualité Code" style="rounded=1;whiteSpace=wrap;html=1;fillColor=#dae8fc;strokeColor=#6c8ebf;fontSize=12;fontStyle=1;" vertex="1" parent="1">
          <mxGeometry x="600" y="480" width="100" height="30" as="geometry" />
        </mxCell>
        
        <mxCell id="code-metrics" value="• Complexité: Faible&#xa;• Duplication: 0%&#xa;• Documentation: 95%&#xa;• Standards: Respectés&#xa;• Maintenabilité: A+" style="text;html=1;strokeColor=#6c8ebf;fillColor=#dae8fc;align=left;verticalAlign=top;whiteSpace=wrap;rounded=1;fontSize=9;" vertex="1" parent="1">
          <mxGeometry x="600" y="515" width="120" height="70" as="geometry" />
        </mxCell>
        
        <mxCell id="reliability" value="Fiabilité" style="rounded=1;whiteSpace=wrap;html=1;fillColor=#f0f0f0;strokeColor=#666666;fontSize=12;fontStyle=1;" vertex="1" parent="1">
          <mxGeometry x="740" y="480" width="100" height="30" as="geometry" />
        </mxCell>
        
        <mxCell id="reliability-metrics" value="• Bugs: 0 critiques&#xa;• Stabilité: 99.9%&#xa;• Compatibilité: 100%&#xa;• Sécurité: Validée&#xa;• Robustesse: A+" style="text;html=1;strokeColor=#666666;fillColor=#f0f0f0;align=left;verticalAlign=top;whiteSpace=wrap;rounded=1;fontSize=9;" vertex="1" parent="1">
          <mxGeometry x="740" y="515" width="120" height="70" as="geometry" />
        </mxCell>
        
        <!-- CI/CD Pipeline -->
        <mxCell id="cicd-title" value="PIPELINE CI/CD" style="text;html=1;strokeColor=none;fillColor=none;align=center;verticalAlign=middle;whiteSpace=wrap;rounded=0;fontSize=16;fontStyle=1;" vertex="1" parent="1">
          <mxGeometry x="80" y="620" width="200" height="30" as="geometry" />
        </mxCell>
        
        <mxCell id="commit" value="Commit" style="rounded=1;whiteSpace=wrap;html=1;fillColor=#f8cecc;strokeColor=#b85450;fontSize=12;fontStyle=1;" vertex="1" parent="1">
          <mxGeometry x="80" y="660" width="80" height="30" as="geometry" />
        </mxCell>
        
        <mxCell id="test-run" value="Tests Auto" style="rounded=1;whiteSpace=wrap;html=1;fillColor=#fff2cc;strokeColor=#d6b656;fontSize=12;fontStyle=1;" vertex="1" parent="1">
          <mxGeometry x="180" y="660" width="80" height="30" as="geometry" />
        </mxCell>
        
        <mxCell id="quality-check" value="Quality Gate" style="rounded=1;whiteSpace=wrap;html=1;fillColor=#e1d5e7;strokeColor=#9673a6;fontSize=12;fontStyle=1;" vertex="1" parent="1">
          <mxGeometry x="280" y="660" width="80" height="30" as="geometry" />
        </mxCell>
        
        <mxCell id="deploy" value="Deploy" style="rounded=1;whiteSpace=wrap;html=1;fillColor=#d5e8d4;strokeColor=#82b366;fontSize=12;fontStyle=1;" vertex="1" parent="1">
          <mxGeometry x="380" y="660" width="80" height="30" as="geometry" />
        </mxCell>
        
        <!-- Arrows -->
        <mxCell id="arrow-commit-test" style="edgeStyle=orthogonalEdgeStyle;rounded=0;orthogonalLoop=1;jettySize=auto;html=1;exitX=1;exitY=0.5;exitDx=0;exitDy=0;entryX=0;entryY=0.5;entryDx=0;entryDy=0;strokeWidth=2;strokeColor=#2D7600;" edge="1" parent="1" source="commit" target="test-run">
          <mxGeometry relative="1" as="geometry" />
        </mxCell>
        
        <mxCell id="arrow-test-quality" style="edgeStyle=orthogonalEdgeStyle;rounded=0;orthogonalLoop=1;jettySize=auto;html=1;exitX=1;exitY=0.5;exitDx=0;exitDy=0;entryX=0;entryY=0.5;entryDx=0;entryDy=0;strokeWidth=2;strokeColor=#2D7600;" edge="1" parent="1" source="test-run" target="quality-check">
          <mxGeometry relative="1" as="geometry" />
        </mxCell>
        
        <mxCell id="arrow-quality-deploy" style="edgeStyle=orthogonalEdgeStyle;rounded=0;orthogonalLoop=1;jettySize=auto;html=1;exitX=1;exitY=0.5;exitDx=0;exitDy=0;entryX=0;entryY=0.5;entryDx=0;entryDy=0;strokeWidth=2;strokeColor=#2D7600;" edge="1" parent="1" source="quality-check" target="deploy">
          <mxGeometry relative="1" as="geometry" />
        </mxCell>
        
        <!-- Test Tools -->
        <mxCell id="tools-title" value="OUTILS DE TEST" style="text;html=1;strokeColor=none;fillColor=none;align=center;verticalAlign=middle;whiteSpace=wrap;rounded=0;fontSize=16;fontStyle=1;" vertex="1" parent="1">
          <mxGeometry x="600" y="620" width="200" height="30" as="geometry" />
        </mxCell>
        
        <mxCell id="test-tools" value="• Framework: Custom JS&#xa;• Runner: HTML Interface&#xa;• Assertions: Built-in&#xa;• Mocking: Manual&#xa;• Coverage: Manual tracking&#xa;• Reporting: Real-time&#xa;• Browser: All modern" style="text;html=1;strokeColor=#666666;fillColor=#f5f5f5;align=left;verticalAlign=top;whiteSpace=wrap;rounded=1;fontSize=10;" vertex="1" parent="1">
          <mxGeometry x="600" y="660" width="180" height="100" as="geometry" />
        </mxCell>
        
        <!-- Best Practices -->
        <mxCell id="practices-title" value="BONNES PRATIQUES" style="text;html=1;strokeColor=none;fillColor=none;align=center;verticalAlign=middle;whiteSpace=wrap;rounded=0;fontSize=14;fontStyle=1;" vertex="1" parent="1">
          <mxGeometry x="80" y="720" width="150" height="30" as="geometry" />
        </mxCell>
        
        <mxCell id="practices" value="• Tests atomiques et isolés&#xa;• Nommage descriptif&#xa;• Setup/Teardown propres&#xa;• Assertions claires&#xa;• Couverture maximale&#xa;• Tests rapides&#xa;• Documentation intégrée" style="text;html=1;strokeColor=#d79b00;fillColor=#ffe6cc;align=left;verticalAlign=top;whiteSpace=wrap;rounded=1;fontSize=10;" vertex="1" parent="1">
          <mxGeometry x="80" y="755" width="200" height="90" as="geometry" />
        </mxCell>
        
        <!-- Future Improvements -->
        <mxCell id="future-title" value="AMÉLIORATIONS FUTURES" style="text;html=1;strokeColor=none;fillColor=none;align=center;verticalAlign=middle;whiteSpace=wrap;rounded=0;fontSize=14;fontStyle=1;" vertex="1" parent="1">
          <mxGeometry x="320" y="720" width="180" height="30" as="geometry" />
        </mxCell>
        
        <mxCell id="future" value="• Tests E2E automatisés&#xa;• Tests de charge&#xa;• Tests cross-browser&#xa;• Tests d'accessibilité&#xa;• Tests de sécurité&#xa;• Intégration continue&#xa;• Métriques avancées" style="text;html=1;strokeColor=#7F00FF;fillColor=#f0e6ff;align=left;verticalAlign=top;whiteSpace=wrap;rounded=1;fontSize=10;" vertex="1" parent="1">
          <mxGeometry x="320" y="755" width="180" height="90" as="geometry" />
        </mxCell>
      </root>
    </mxGraphModel>
  </diagram>
</mxfile>
